# xmcd
#
# Track frame offsets:
#  150
#  11220
#  22985
#  35672
#  46952
#  59062
#  71522
#  87742
#  97872
#  108220
#
# Disc length: 1691 seconds
#
# Revision: 0
# Processed by: cddbd v1.4PL0 Copyright (c) Steve Scherf et al.
# Submitted via: AltoMP3_Maker 3.0
#
DISCID=8206990a
DTITLE=Gabriel Erb - Wish I Was A Cowboy
DYEAR=1900
DGENRE=
TTITLE0=Wrong Mrs. Right
TTITLE1=Sittin' In A Honky Tonk
TTITLE2=Wish I Was A Cowboy
TTITLE3=Why Did You Stop Lovin' Me
TTITLE4=Ain't That The Way
TTITLE5=Right Smack Dab In The Middle
TTITLE6=First Time
TTITLE7=Will To Love
TTITLE8=Speakin' Of A Fall
TTITLE9=Love's Last Stand
EXTD=
EXTT0=
EXTT1=
EXTT2=
EXTT3=
EXTT4=
EXTT5=
EXTT6=
EXTT7=
EXTT8=
EXTT9=
PLAYORDER=
